<?xml version="1.0" encoding="utf-8"?>
<!DOCTYPE svg PUBLIC "-//W3C//DTD SVG 1.1//EN" "http://www.w3.org/Graphics/SVG/1.1/DTD/svg11.dtd">
<svg version="1.1" id="Custom_Stickey_Notes" xmlns="http://www.w3.org/2000/svg" xmlns:xlink="http://www.w3.org/1999/xlink" x="0px" y="0px"
  width="108px" height="108px" viewBox="0 0 1080 1080" enable-background="new 0 0 1080 1080" xml:space="preserve">
  <rect x="200.939" y="438.376" fill="#979797" width="347.469" height="25.427"/>
  <rect x="200.939" y="530.826" fill="#979797" width="467.939" height="25.426"/>
  <rect x="200.939" y="623.283" fill="#979797" width="347.469" height="25.429"/>
  <rect x="200.939" y="715.746" fill="#979797" width="122.18" height="25.42"/>
  <rect x="374.672" y="715.746" fill="#979797" width="294.207" height="25.42"/>
  <rect x="595.869" y="623.283" fill="#979797" width="73.01" height="25.429"/>
  <path fill="#474544" d="M817.624,42.161l-29.177,70.752l28.795,32.745l-122.929,82.003l-15.389-17.509l-69.048,25.376l6.836,7.775
H140.675c-48.109,0-87.287,39.153-87.287,87.286v584.923H53.4c0.035,6.966,0.648,13.778,1.808,20.418
c9.988,57.81,60.474,101.908,121.063,101.908c0.001,0,0.002,0,0.003,0l0,0h547.771h1.573h0.002
c48.122,0,87.287-39.175,87.287-87.298V466.485l2.967,3.371l32.177-67.344l-15.388-17.485l93.115-115.907l28.807,32.745
l72.025-21.969L817.624,42.161z M251.045,1012.415c25.236-19.408,42.756-48.374,47.078-81.432l324.588,81.432H251.045z
 M787.486,950.541c0,33.614-26.94,61.041-60.37,61.854L273.742,898.644v16.314c0,53.716-43.694,97.435-97.426,97.457h-0.042v0.003
c-0.001,0-0.002,0-0.003,0c-40.671,0-75.618-25.076-90.206-60.591c-4.671-11.366-7.255-23.822-7.255-36.869V330.59
c0-34.124,27.764-61.864,61.864-61.864h498.39l47.057,53.533l-37.752,50.277l-0.001,0.002l-43.51-43.509l-17.979,17.979
l124.822,124.817l17.979-17.979l-39.842-39.839l0.001-0.001l49.803-30.88l47.844,54.437V950.541z M674.8,398.968l-11.762-11.761
l0.001-0.002l36.94-49.188l25.792,29.339L674.8,398.968L674.8,398.968z M812.908,428.537l-1.981,4.148L787.486,406l-29.896-34.02
l-58.678-66.72l-32.119-36.535l-21.251-24.171l3.406-1.251l23.742-8.726l7.671,8.726l22.352,25.422l84.772,96.43l25.422,28.91
l10.672,12.144L812.908,428.537z M925.258,236.966L818.876,369.338l-5.968-6.79l-25.422-28.91l-56.883-64.703l-22.514-25.607
l0.035-0.023l140.367-93.647l-36.105-41.065l11.46-27.798L989.671,269.41l-28.331,8.62L925.258,236.966z"/>
</svg>
